<?xml version="1.0" encoding="UTF-8"?>
<svg width="194px" height="194px" viewBox="0 0 194 194" version="1.1" xmlns="http://www.w3.org/2000/svg" xmlns:xlink="http://www.w3.org/1999/xlink">
    <title>Group</title>
    <g id="Page-5" stroke="none" stroke-width="1" fill="none" fill-rule="evenodd">
        <g id="Group">
            <rect id="Rectangle" x="0" y="0" width="194" height="194"></rect>
            <path d="M144.589211,72.1718775 L144.589211,87.0664133 C147.852887,94.1893089 149.577118,102.165011 149.29595,110.57609 C148.379994,137.959622 126.029463,160.221662 98.6425021,161.019964 C68.5535365,161.897364 43.9822439,137.32683 44.8583182,107.238645 C45.6552933,79.8544482 67.9121012,57.5046681 95.2930798,56.5833978 C103.702862,56.3009014 111.6766,58.0224673 118.798859,61.2841366 L118.798859,52.8684049 C110.821796,49.7682569 102.027818,48.3032642 92.815079,48.9480205 C62.9095705,51.0398228 38.8946317,75.3398245 37.1817003,105.268483 C35.1523718,140.715457 63.9126025,169.970777 99.18955,168.762357 C129.545725,167.721441 155.994794,141.276461 157.043691,110.920403 C157.549527,96.307699 152.813541,82.8243155 144.589211,72.1718775" id="Fill-4" fill="#4587E1"></path>
            <path d="M97.5,114 C94.4624755,114 92,111.537675 92,108.500337 C92,105.462325 94.4624755,103 97.5,103 C100.538198,103 103,105.462325 103,108.500337 C103,111.537675 100.538198,114 97.5,114 Z M96.9996775,85 C83.7450654,85 73,95.7450654 73,109.000322 C73,122.254935 83.7450654,133 96.9996775,133 C110.254935,133 121,122.254935 121,109.000322 C121,95.7450654 110.254935,85 96.9996775,85 L96.9996775,85 Z" id="Fill-5" fill="#4587E1"></path>
            <path d="M97.0808288,32.7985 C54.5547549,32.7985 20.0805,67.1742841 20.0805,109.578233 C20.0805,146.682098 46.4746562,177.6386 81.5611992,184.7985 L81.5611992,177.084458 C50.673861,170.052437 27.6193387,142.509314 27.6193387,109.578233 C27.6193387,71.3254262 58.7184457,40.3158051 97.0808288,40.3158051 C135.443212,40.3158051 166.542319,71.3254262 166.542319,109.578233 C166.542319,141.871888 144.37762,169.002519 114.390629,176.671967 L114.390629,184.386009 C148.577483,176.551302 174.0805,146.044671 174.0805,109.578233 C174.0805,67.1742841 139.606903,32.7985 97.0808288,32.7985" id="Fill-6" fill="#4DC3D7"></path>
            <path d="M96.4996647,140 C79.1026858,140 65,126.344873 65,109.500649 C65,92.6557763 79.1026858,79 96.4996647,79 C113.895973,79 128,92.6557763 128,109.500649 C128,126.344873 113.895973,140 96.4996647,140 Z M167.828786,9 L128.717034,9 C126.332448,9 124.43439,10.9600845 124.55452,13.2975115 L124.693337,15.9749398 L124.484444,15.9749398 L124.484444,77.5197594 C117.011673,71.1743788 107.277115,67.3262717 96.6208911,67.3262717 C73.0820287,67.3262717 54,86.0577879 54,109.163463 C54,132.269139 73.0820287,151 96.6208911,151 C119.659211,151 138.415553,133.053959 139.204408,110.628941 L139.203741,110.628286 C139.203741,110.628286 139.231104,108.839185 139.229769,108.676718 L139.229769,32.108951 L159.802081,35.9858829 C161.794241,36.3619151 163.773054,35.2744351 164.487162,33.4106515 L171.729016,14.5317359 C172.754795,11.856928 170.741278,9 167.828786,9 L167.828786,9 Z" id="Fill-7" fill="#4DC3D7"></path>
        </g>
    </g>
</svg>